<svg xmlns="http://www.w3.org/2000/svg" width="17" height="17" viewBox="0 0 17 17"><g><g><path fill="#1f373d" d="M16.605 8.803a7.884 7.884 0 0 1-.625 3.092 7.963 7.963 0 0 1-1.7 2.526c-.361.36-.755.685-1.177.967a7.828 7.828 0 0 1-2.842 1.197 7.767 7.767 0 0 1-1.6.163 7.797 7.797 0 0 1-1.6-.163 7.837 7.837 0 0 1-2.842-1.196 7.887 7.887 0 0 1-2.146-2.142 7.886 7.886 0 0 1-.731-1.352 7.903 7.903 0 0 1-.626-3.093A7.914 7.914 0 0 1 2.073 4.36c.284-.42.611-.814.969-1.173a7.9 7.9 0 0 1 1.177-.97A7.837 7.837 0 0 1 7.06 1.02a7.918 7.918 0 0 1 3.2 0 7.828 7.828 0 0 1 2.843 1.196c.422.283.816.61 1.176.97a7.898 7.898 0 0 1 2.326 5.616zm-2.704-4.311c-.014.02-1.1 1.593-3.78 2.687.157.323.309.652.451.984.05.116.099.233.147.35 2.33-.294 4.626.2 4.724.221a6.767 6.767 0 0 0-1.542-4.242zm-5.24-2.474c-.55 0-1.085.068-1.599.19a34.44 34.44 0 0 1 2.536 3.96c2.56-.96 3.527-2.43 3.545-2.457A6.76 6.76 0 0 0 8.66 2.018zM7.02 2.22l.016-.002v-.002a.088.088 0 0 1-.016.004zm-.004 0h.004-.004zM2.02 7.405c.18.003 3.006.038 6.264-.828a40.96 40.96 0 0 0-2.519-3.91A6.799 6.799 0 0 0 2.02 7.405zm1.593 5.933l-.002-.003s1.856-3.296 5.518-4.479c.09-.027.179-.056.268-.079-.17-.387-.357-.774-.55-1.154C5.355 8.667 2 8.59 1.88 8.588c-.002.071-.006.142-.006.214 0 1.743.66 3.332 1.74 4.535zm7.695 1.715c-.1-.594-.494-2.672-1.45-5.152-.013.001-.028.007-.044.013-4.024 1.402-5.325 4.239-5.325 4.239s-.062-.046-.151-.118a6.764 6.764 0 0 0 4.322 1.555c.94 0 1.835-.193 2.648-.537zM15.36 9.88c-.141-.046-2.04-.647-4.23-.297.89 2.446 1.252 4.437 1.321 4.845a6.78 6.78 0 0 0 2.91-4.548z"/></g></g></svg>