<svg xmlns="http://www.w3.org/2000/svg" width="18" height="12" viewBox="0 0 18 12"><g><g><path fill="#0f0f0f" d="M17.404 6.593v2.103c0 .36-.287.647-.647.647h-.217v1.69c0 .36-.287.647-.646.647h-.611a.644.644 0 0 1-.647-.647v-1.69H3.365v1.69c0 .36-.288.647-.648.647h-.611a.645.645 0 0 1-.648-.647V9.36h-.214a.645.645 0 0 1-.649-.647V6.593c0-1.24.774-1.78 1.583-1.87V1.991C2.178.75 3.04.32 3.85.32h10.247c.81 0 1.672.448 1.672 1.67v2.733c.81.09 1.581.63 1.636 1.87zM2.789 4.706h.593V3.16c0-.36.287-.648.647-.648h3.955c.36 0 .647.288.647.648v1.546h.755V3.16c0-.36.287-.648.648-.648h3.954c.36 0 .648.288.648.648v1.546h.485V1.99c0-.845-.557-1.025-1.025-1.025H3.85c-.467 0-1.024.18-1.024 1.025h-.036zM13.988 3.16h-3.954v1.546h3.954zm-5.967 0H4.066v1.546H8.02zm-5.322 7.873v-1.69h-.612v1.69zm13.159-1.69h-.611v1.69h.61zm.845-1.582H1.225v.953h15.478zm0-.647v-.521c0-1.079-.773-1.24-1.24-1.24H2.464c-.449 0-1.24.161-1.24 1.24v.52z"/></g></g></svg>