<svg xmlns="http://www.w3.org/2000/svg" width="25" height="25" viewBox="0 0 25 25"><g><g><path fill="#fff" d="M24.365 19.712l-3.838-3.838c-.764-.76-2.03-.737-2.82.054l-1.932 1.932a32.82 32.82 0 0 1-.382-.212c-1.22-.676-2.892-1.603-4.65-3.362-1.762-1.763-2.69-3.436-3.368-4.658-.073-.13-.141-.254-.209-.373L8.464 7.96l.637-.638c.793-.793.814-2.058.052-2.821L5.316.664c-.762-.763-2.028-.74-2.82.052l-1.08 1.087.028.03a6.27 6.27 0 0 0-.89 1.572 6.53 6.53 0 0 0-.397 1.594c-.507 4.2 1.413 8.038 6.62 13.246 7.201 7.2 13.002 6.656 13.253 6.629a6.478 6.478 0 0 0 1.598-.401 6.24 6.24 0 0 0 1.567-.888l.023.022 1.096-1.073c.789-.793.812-2.058.05-2.822z"/></g></g></svg>