<svg xmlns="http://www.w3.org/2000/svg" width="11" height="12" viewBox="0 0 11 12"><g><g><path d="M10.505 2.406V11.2a.449.449 0 1 1-.898 0V2.406c0-.743-.604-1.346-1.345-1.346H5.674c-.741 0-1.346.603-1.346 1.346v1.319a3.1 3.1 0 0 1 2.647 3.062.448.448 0 0 1-.449.448H1.232a.448.448 0 0 1-.448-.448 3.1 3.1 0 0 1 2.647-3.062V2.406A2.245 2.245 0 0 1 5.674.162h2.588a2.246 2.246 0 0 1 2.243 2.244zM3.88 4.59a2.202 2.202 0 0 0-2.153 1.749h4.305A2.202 2.202 0 0 0 3.88 4.589zm.448 3.742v.673a.448.448 0 1 1-.897 0v-.673a.449.449 0 0 1 .897 0zm-.005 2.195v.673a.449.449 0 1 1-.897 0v-.673a.449.449 0 1 1 .897 0zM2.566 8.33v.673a.449.449 0 0 1-.897 0v-.673a.449.449 0 0 1 .897 0zm-.005 2.195v.673a.449.449 0 1 1-.898 0v-.673a.45.45 0 0 1 .898 0zM6.085 8.33v.673a.449.449 0 0 1-.898 0v-.673a.449.449 0 0 1 .898 0zm-.006 2.195v.673a.448.448 0 1 1-.896 0v-.673a.449.449 0 0 1 .897 0z"/></g></g></svg>