<svg xmlns="http://www.w3.org/2000/svg" width="16" height="14" viewBox="0 0 16 14"><g><g><path fill="#1f373d" d="M15.714 2.35a6.438 6.438 0 0 1-1.864.512 3.255 3.255 0 0 0 1.427-1.798 6.516 6.516 0 0 1-2.062.79A3.248 3.248 0 0 0 7.68 4.816 9.216 9.216 0 0 1 .984 1.422 3.253 3.253 0 0 0 1.99 5.76a3.259 3.259 0 0 1-1.473-.407v.041A3.253 3.253 0 0 0 3.124 8.58a3.266 3.266 0 0 1-1.467.055A3.25 3.25 0 0 0 4.69 10.89a6.515 6.515 0 0 1-4.808 1.344 9.208 9.208 0 0 0 4.98 1.46c5.975 0 9.242-4.95 9.242-9.243 0-.14-.003-.281-.01-.421a6.564 6.564 0 0 0 1.62-1.68z"/></g></g></svg>